<svg xmlns="http://www.w3.org/2000/svg" width="800" height="600" viewBox="0 0 800 600">
  <defs>
    <linearGradient id="bg" x1="0" y1="0" x2="1" y2="1">
      <stop offset="0" stop-color="#111827"/>
      <stop offset="1" stop-color="#0b0c10"/>
    </linearGradient>
    <linearGradient id="paint" x1="0" y1="0" x2="1" y2="1">
      <stop offset="0" stop-color="#76e4f7"/>
      <stop offset="1" stop-color="#a78bfa"/>
    </linearGradient>
  </defs>
  <rect width="800" height="600" fill="url(#bg)"/>
  <rect x="70" y="60" width="660" height="480" rx="22" fill="#0f172a" stroke="#273449" stroke-width="2"/>
  <path d="M120 420 C180 280, 280 520, 360 360 S560 260, 700 420" fill="none" stroke="url(#paint)" stroke-width="24" stroke-linecap="round" opacity="0.18"/>
  <path d="M120 320 C240 200, 340 340, 460 240 S620 200, 700 300" fill="none" stroke="url(#paint)" stroke-width="18" stroke-linecap="round" opacity="0.4"/>
  <path d="M160 330 C260 260, 360 320, 470 260 S620 240, 680 300" fill="none" stroke="#ffffff" stroke-width="6" stroke-linecap="round" opacity="0.35"/>
  <circle cx="250" cy="210" r="38" fill="url(#paint)" opacity="0.5"/>
  <circle cx="540" cy="170" r="28" fill="#ffffff" opacity="0.35"/>
  <circle cx="620" cy="250" r="18" fill="#76e4f7" opacity="0.4"/>
  <rect x="140" y="440" width="520" height="50" rx="12" fill="rgba(255,255,255,0.08)"/>
  <text x="160" y="472" fill="#e8eaf2" font-family="ui-sans-serif, -apple-system, 'Noto Sans KR', 'Malgun Gothic'" font-size="24" font-weight="700">샘플 전시 이미지</text>
  <text x="160" y="500" fill="#a7adbf" font-family="ui-sans-serif, -apple-system, 'Noto Sans KR', 'Malgun Gothic'" font-size="16">임시 그림을 보여주는 자리입니다.</text>
</svg>


